<?xml version="1.0" encoding="utf-8"?>
<!DOCTYPE svg PUBLIC "-//W3C//DTD SVG 1.1//EN" "http://www.w3.org/Graphics/SVG/1.1/DTD/svg11.dtd">
<svg version="1.1" id="Layer_1" xmlns="http://www.w3.org/2000/svg" xmlns:xlink="http://www.w3.org/1999/xlink" x="0px" y="0px"
	 width="612px" height="792px" viewBox="0 0 612 792" enable-background="new 0 0 612 792" xml:space="preserve">
<g>
	<path fill="#AAAAAA" d="M178.188,276.207c0,0,8.085-4.043,16.17-20.791c8.085-16.748,12.128-30.607,24.256-38.116
		c12.127-7.508,35.805-19.058,35.805-19.058s-16.748,9.818-21.945,19.636c-5.198,9.817-8.085,24.833-19.058,33.496
		S178.188,276.207,178.188,276.207z"/>
	<path fill="#AAAAAA" d="M203.598,276.207c0,0,20.213-21.171,24.255-29.257c4.043-8.085,14.603-34.137,29.454-42.932
		c12.462-7.38,40.426-11.551,40.426-11.551s-31.185,15.594-41.003,32.342c-9.818,16.747-16.171,22.522-23.101,30.03
		C226.699,262.346,203.598,276.207,203.598,276.207"/>
	<path fill="#AAAAAA" d="M247.998,253.401c0,0,25.479-46.496,61.862-55.159c36.384-8.663,55.441,7.104,55.441,7.104
		s-36.671-4.794-60.206,6.179C281.562,222.498,247.998,253.401,247.998,253.401z"/>
	<path fill="#AAAAAA" d="M216.303,279.094c0,0,32.918-9.818,48.511-25.411s30.03-32.918,57.174-36.383s69.879-2.31,69.879-2.31
		s-57.172,7.509-73.921,19.347c-16.749,11.838-27.721,28.587-52.554,34.939C240.559,275.628,216.303,279.094,216.303,279.094z"/>
	<path fill="#AAAAAA" d="M294.846,266.389c0,0,20.449-11.533,32-21.928s32.137-15.928,60.435-18.237s48.479,13.6,48.479,13.6
		s-46.154-5.486-69.218,6.753c-17.375,9.22-31.27,18.08-41.664,19.812C314.481,268.122,294.846,266.389,294.846,266.389z"/>
	<path fill="#AAAAAA" d="M318.523,279.094c0,0,22.521-2.887,43.891-15.015s43.023-17.483,64.024-14.255
		c21.12,3.247,44.549,26.383,44.549,26.383s-41.581-12.705-60.64-4.62c-19.058,8.085-38.113,13.282-54.285,12.705
		C339.891,283.714,318.523,279.094,318.523,279.094z"/>
	<path fill="#AAAAAA" d="M353.751,294.109c0,0,9.929,2.523,41.004-4.042c35.088-7.414,23.39-8.597,49.562-8.775
		c23.786-0.163,38.221,10.508,38.221,10.508s-17.325,9.818-46.779,12.706C406.306,307.392,353.751,294.109,353.751,294.109z"/>
	<path fill="#AAAAAA" d="M224.217,296.632c0,0,18.249-24.676,63.295-16.591s39.693,11.979,55.843,18.688
		c17.664,7.338,45.047,15.015,45.047,15.015s-23.678,9.24-46.2,2.31c-22.523-6.93-47.356-24.833-65.26-26.566
		S224.217,296.632,224.217,296.632z"/>
	<path fill="#AAAAAA" d="M365.302,327.028c0,0,28.866-4.945,46.473-6.758c15.899-1.638,16.963-2.886,28.638-2.427
		c11.669,0.458,21.335-0.899,30.575-6.541c9.239-5.642,19.058-14.669,19.058-14.669s-10.973,35.592-42.158,39.635
		C416.701,340.31,365.302,327.028,365.302,327.028z"/>
	<path fill="#AAAAAA" d="M247.998,304.326c0,0,23.817-4.014,64.75,12.506c41.003,16.548,36.963,14.037,50.244,20.201
		s52.554,7.897,52.554,7.897s-41.133,14.428-65.26,5.775c-24.256-8.698-40.426-24.256-52.553-28.298
		C285.605,318.365,247.998,304.326,247.998,304.326z"/>
	<path fill="#AAAAAA" d="M337.581,357.636c0,0,10.394,1.732,50.821,0c40.427-1.732,47.356-8.085,47.356-8.085l-33.497,25.988
		c0,0-4.618,1.154-28.874-4.621C349.132,365.144,337.581,357.636,337.581,357.636z"/>
	<path fill="#AAAAAA" d="M241.137,324.14c0,0,16.748-2.31,43.313,10.395c26.565,12.706,31.187,15.593,38.694,21.369
		c7.506,5.775,17.471,11.747,17.471,11.747s-32.487-5.972-57.321-18.1C258.462,337.423,241.137,324.14,241.137,324.14z"/>
	<path fill="#AAAAAA" d="M356.062,381.313l15.593,13.284l17.146-11.446C387.179,383.375,352.513,381.171,356.062,381.313z"/>
	<path fill="#AAAAAA" d="M297.733,368.662c0,0-9.241-4.043-21.369,5.198c-12.127,9.24-21.945,14.693-21.945,14.693
		s5.199-5.265,2.311-10.557s-15.593-9.334-15.593-9.334s9.241-3.947,28.298-3.706S297.733,368.662,297.733,368.662z"/>
	<path fill="#AAAAAA" d="M267.125,399.729c0,0,29.922-11.972,51.398-3.399c21.476,8.573,28.297,43.891,28.297,43.891
		s-16.744-16.748-34.072-26.566C295.422,403.836,267.125,399.729,267.125,399.729z"/>
	<path fill="#AAAAAA" d="M267.125,411.346c0,0,14.438-7.135,34.073,5.383c19.635,12.52,17.906,39.661,18.771,51.213
		c0.864,11.551-0.869,34.652-1.445,45.625c-0.577,10.971,7.507,32.338,7.507,32.338s-15.593-15.59-17.902-39.27
		c-2.31-23.678,0.575-69.303-11.551-78.543C284.45,418.853,267.125,411.346,267.125,411.346z"/>
	<path fill="#AAAAAA" d="M263.66,433.869c0,0,30.609,5.197,31.186,24.832c0.577,19.635-1.733,49.666,0,69.301
		c1.732,19.635,13.282,38.117,13.282,38.117s-20.213-4.043-27.721-43.891c-7.508-39.85-5.197-58.332-10.972-73.346
		S263.66,433.869,263.66,433.869z"/>
	<path fill="none" stroke="#AAAAAA" stroke-width="3" stroke-linejoin="bevel" d="M167.792,282.712c0,0-15.015,14.648-16.748,21.974
		c-1.732,7.326-0.577,9.592-5.198,13.945c-4.621,4.354-7.509,0.022-16.749,9.984c-9.239,9.962-9.818,6.909-13.86,16.521
		c-4.042,9.612-8.084,5.665-6.352,17.456s5.197,13.041,5.197,13.041s0.001,12.611,5.776,17.231
		c5.774,4.62,18.274,9.239,18.274,9.239s16.375,0,25.616-5.197c9.241-5.197,11.55-8.151,24.256-10.716
		c12.706-2.566,26.567,6.673,32.341,15.914c5.774,9.242,13.283,12.707,0,16.749c-13.284,4.042-19.637,8.663-27.144,12.128
		c-7.507,3.465-16.169,6.352-15.015,9.24c1.155,2.887,1.733,7.508,5.775,9.817s5.774,5.198,5.774,5.198s-3.464,13.281,8.086,19.635
		c11.55,6.354,10.394-0.869,14.437,2.742s11.551,9.965,11.551,9.965s-1.155-2.311,10.396-32.919
		c11.55-30.608,8.661-19.637,16.458-27.144c7.797-7.508,25.7-4.621,25.7-4.621"/>
	<path fill="none" stroke="#AAAAAA" stroke-width="3" stroke-linejoin="bevel" d="M172.412,296.632c0,0-11.663,5.061-11.663,10.258
		c0,5.198-7.912,3.032,7.042,4.708c12.056,1.351,21.293,3.408,21.293,3.408c-3.737,1.457-32.844,5.505-40.351,18.374"/>
	<path fill="#AAAAAA" stroke="#AAAAAA" d="M161.041,312.452c-0.917,4.093-0.167,7.774,0.934,11.634
		c2.354-0.276,5.444-2.046,7.458-3.19c2.749-1.562,7.892-4.128,9.968-6.143c-5.132-0.324-14.405,0.275-18.268-3.155
		c0.102,0.738-0.49,1.471-0.541,1.752"/>
	<path fill="#AAAAAA" d="M110.923,364.945c-0.419,9.938,8.047,6.832,14.353,8.615c-2.34,3.155-7.511,3.354-9.895,6.39
		c0.125-3.23-1.04-6.958-2.661-9.614"/>
	<path fill="#AAAAAA" stroke="#AAAAAA" d="M152.25,400.881c-2.075,8.971,3.57,12.426,7.118,19.699
		c-3.813-1.707-8.834-2.344-11.972-5.448c-2.995-2.961-7.65-8.932-9.263-13.028"/>
	<path fill="#AAAAAA" stroke="#AAAAAA" d="M193.384,429.246c-2.525,0.861-5.046,1.562-7.328,0.931
		c0.493,0.136-4.671-3.474-4.445-3.289c-3.368-2.735-1.496-4.795-3.425-8.448c0.009,5.219-3.972,15.756,1.727,19.01
		c4.764-6.111,9.839-7.549,17.065-10.45"/>
	<path fill="#AAAAAA" d="M278.926,382.464c0,0,20.665-13.012,42.676-8.078c22.01,4.934,54.168,46.194,54.168,46.194
		s-34.405-27.007-55.518-32.336C299.141,382.913,278.926,382.464,278.926,382.464z"/>
	<path fill="#AAAAAA" d="M263.66,352.546l-28.756-19.166c0,0,2.246,3.773,2.246,9.583s-2.246,17.04-2.246,17.04L263.66,352.546z"/>
</g>
</svg>