<?xml version="1.0" encoding="UTF-8" standalone="no"?>
<svg
   xmlns:dc="http://purl.org/dc/elements/1.1/"
   xmlns:cc="http://creativecommons.org/ns#"
   xmlns:rdf="http://www.w3.org/1999/02/22-rdf-syntax-ns#"
   xmlns:svg="http://www.w3.org/2000/svg"
   xmlns="http://www.w3.org/2000/svg"
   xmlns:sodipodi="http://sodipodi.sourceforge.net/DTD/sodipodi-0.dtd"
   xmlns:inkscape="http://www.inkscape.org/namespaces/inkscape"
   version="1.1"
   id="Layer_1"
   x="0px"
   y="0px"
   width="512"
   height="512"
   viewBox="0 0 512 512"
   enable-background="new 0 0 512 512"
   xml:space="preserve"
   inkscape:version="0.91 r13725"
   sodipodi:docname="logo.svg">
   <metadata id="metadata59">
    <rdf:RDF>
      <cc:Work rdf:about="">
        <dc:format>image/svg+xml</dc:format>
        <dc:type rdf:resource="http://purl.org/dc/dcmitype/StillImage" />
        <dc:title></dc:title>
      </cc:Work>
    </rdf:RDF>
  </metadata>
  <defs id="defs57" />
  <sodipodi:namedview
     pagecolor="#ffffff"
     bordercolor="#666666"
     borderopacity="1"
     objecttolerance="10"
     gridtolerance="10"
     guidetolerance="10"
     inkscape:pageopacity="0"
     inkscape:pageshadow="2"
     inkscape:window-width="1920"
     inkscape:window-height="1017"
     id="namedview55"
     showgrid="false"
     inkscape:zoom="1.1919192"
     inkscape:cx="451.12457"
     inkscape:cy="190.74479"
     inkscape:window-x="1912"
     inkscape:window-y="-8"
     inkscape:window-maximized="1"
     inkscape:current-layer="Layer_1" /><g
     id="g3"
     transform="matrix(1.3285193,0,0,1.2784246,-140.85396,-236.65534)">
      <path
        d="m 178.188,276.207 c 0,0 8.085,-4.043 16.17,-20.791 8.085,-16.748 12.128,-30.607 24.256,-38.116 12.127,-7.508 35.805,-19.058 35.805,-19.058 0,0 -16.748,9.818 -21.945,19.636 -5.198,9.817 -8.085,24.833 -19.058,33.496 -10.973,8.663 -35.228,24.833 -35.228,24.833 z"
        id="path5"
        inkscape:connector-curvature="0"
        style="fill:#2980b9" />
      <path
       d="m 203.598,276.207 c 0,0 20.213,-21.171 24.255,-29.257 4.043,-8.085 14.603,-34.137 29.454,-42.932 12.462,-7.38 40.426,-11.551 40.426,-11.551 0,0 -31.185,15.594 -41.003,32.342 -9.818,16.747 -16.171,22.522 -23.101,30.03 -6.93,7.507 -30.031,21.368 -30.031,21.368"
       id="path7"
       inkscape:connector-curvature="0"
       style="fill:#2980b9" /><path
       d="m 247.998,253.401 c 0,0 25.479,-46.496 61.862,-55.159 36.384,-8.663 55.441,7.104 55.441,7.104 0,0 -36.671,-4.794 -60.206,6.179 -23.533,10.973 -57.097,41.876 -57.097,41.876 z"
       id="path9"
       inkscape:connector-curvature="0"
       style="fill:#2980b9" /><path
       d="m 216.303,279.094 c 0,0 32.918,-9.818 48.511,-25.411 15.593,-15.593 30.03,-32.918 57.174,-36.383 27.144,-3.465 69.879,-2.31 69.879,-2.31 0,0 -57.172,7.509 -73.921,19.347 -16.749,11.838 -27.721,28.587 -52.554,34.939 -24.833,6.352 -49.089,9.818 -49.089,9.818 z"
       id="path11"
       inkscape:connector-curvature="0"
       style="fill:#2980b9" /><path
       d="m 294.846,266.389 c 0,0 20.449,-11.533 32,-21.928 11.551,-10.395 32.137,-15.928 60.435,-18.237 28.298,-2.309 48.479,13.6 48.479,13.6 0,0 -46.154,-5.486 -69.218,6.753 -17.375,9.22 -31.27,18.08 -41.664,19.812 -10.397,1.733 -30.032,0 -30.032,0 z"
       id="path13"
       inkscape:connector-curvature="0"
       style="fill:#2980b9" /><path
       d="m 318.523,279.094 c 0,0 22.521,-2.887 43.891,-15.015 21.37,-12.128 43.023,-17.483 64.024,-14.255 21.12,3.247 44.549,26.383 44.549,26.383 0,0 -41.581,-12.705 -60.64,-4.62 -19.058,8.085 -38.113,13.282 -54.285,12.705 -16.171,-0.578 -37.539,-5.198 -37.539,-5.198 z"
       id="path15"
       inkscape:connector-curvature="0"
       style="fill:#2980b9" /><path
       d="m 353.751,294.109 c 0,0 9.929,2.523 41.004,-4.042 35.088,-7.414 23.39,-8.597 49.562,-8.775 23.786,-0.163 38.221,10.508 38.221,10.508 0,0 -17.325,9.818 -46.779,12.706 -29.453,2.886 -82.008,-10.397 -82.008,-10.397 z"
       id="path17"
       inkscape:connector-curvature="0"
       style="fill:#2980b9" /><path
       d="m 224.217,296.632 c 0,0 18.249,-24.676 63.295,-16.591 45.046,8.085 39.693,11.979 55.843,18.688 17.664,7.338 45.047,15.015 45.047,15.015 0,0 -23.678,9.24 -46.2,2.31 -22.523,-6.93 -47.356,-24.833 -65.26,-26.566 -17.904,-1.733 -52.725,7.144 -52.725,7.144 z"
       id="path19"
       inkscape:connector-curvature="0"
       style="fill:#2980b9" /><path
       d="m 365.302,327.028 c 0,0 28.866,-4.945 46.473,-6.758 15.899,-1.638 16.963,-2.886 28.638,-2.427 11.669,0.458 21.335,-0.899 30.575,-6.541 9.239,-5.642 19.058,-14.669 19.058,-14.669 0,0 -10.973,35.592 -42.158,39.635 -31.187,4.042 -82.586,-9.24 -82.586,-9.24 z"
       id="path21"
       inkscape:connector-curvature="0"
       style="fill:#2980b9" /><path
       d="m 247.998,304.326 c 0,0 23.817,-4.014 64.75,12.506 41.003,16.548 36.963,14.037 50.244,20.201 13.281,6.164 52.554,7.897 52.554,7.897 0,0 -41.133,14.428 -65.26,5.775 -24.256,-8.698 -40.426,-24.256 -52.553,-28.298 -12.128,-4.042 -49.735,-18.081 -49.735,-18.081 z"
       id="path23"
       inkscape:connector-curvature="0"
       style="fill:#2980b9" /><path
       d="m 337.581,357.636 c 0,0 10.394,1.732 50.821,0 40.427,-1.732 47.356,-8.085 47.356,-8.085 l -33.497,25.988 c 0,0 -4.618,1.154 -28.874,-4.621 -24.255,-5.774 -35.806,-13.282 -35.806,-13.282 z"
       id="path25"
       inkscape:connector-curvature="0"
       style="fill:#2980b9" /><path
       d="m 241.137,324.14 c 0,0 16.748,-2.31 43.313,10.395 26.565,12.706 31.187,15.593 38.694,21.369 7.506,5.775 17.471,11.747 17.471,11.747 0,0 -32.487,-5.972 -57.321,-18.1 -24.832,-12.128 -42.157,-25.411 -42.157,-25.411 z"
       id="path27"
       inkscape:connector-curvature="0"
       style="fill:#2980b9" /><path
       d="m 356.062,381.313 15.593,13.284 17.146,-11.446 c -1.622,0.224 -36.288,-1.98 -32.739,-1.838 z"
       id="path29"
       inkscape:connector-curvature="0"
       style="fill:#2980b9" /><path
       d="m 297.733,368.662 c 0,0 -9.241,-4.043 -21.369,5.198 -12.127,9.24 -21.945,14.693 -21.945,14.693 0,0 5.199,-5.265 2.311,-10.557 -2.888,-5.292 -15.593,-9.334 -15.593,-9.334 0,0 9.241,-3.947 28.298,-3.706 19.057,0.241 28.298,3.706 28.298,3.706 z"
       id="path31"
       inkscape:connector-curvature="0"
       style="fill:#2980b9" /><path
       d="m 267.125,399.729 c 0,0 29.922,-11.972 51.398,-3.399 21.476,8.573 28.297,43.891 28.297,43.891 0,0 -16.744,-16.748 -34.072,-26.566 -17.326,-9.819 -45.623,-13.926 -45.623,-13.926 z"
       id="path33"
       inkscape:connector-curvature="0"
       style="fill:#2980b9" /><path
       d="m 267.125,411.346 c 0,0 14.438,-7.135 34.073,5.383 19.635,12.52 17.906,39.661 18.771,51.213 0.864,11.551 -0.869,34.652 -1.445,45.625 -0.577,10.971 7.507,32.338 7.507,32.338 0,0 -15.593,-15.59 -17.902,-39.27 -2.31,-23.678 0.575,-69.303 -11.551,-78.543 -12.128,-9.239 -29.453,-16.746 -29.453,-16.746 z"
       id="path35"
       inkscape:connector-curvature="0"
       style="fill:#2980b9" /><path
       d="m 263.66,433.869 c 0,0 30.609,5.197 31.186,24.832 0.577,19.635 -1.733,49.666 0,69.301 1.732,19.635 13.282,38.117 13.282,38.117 0,0 -20.213,-4.043 -27.721,-43.891 -7.508,-39.85 -5.197,-58.332 -10.972,-73.346 -5.775,-15.014 -5.775,-15.013 -5.775,-15.013 z"
       id="path37"
       inkscape:connector-curvature="0"
       style="fill:#2980b9" /><path
       d="m 167.792,282.712 c 0,0 -15.015,14.648 -16.748,21.974 -1.732,7.326 -0.577,9.592 -5.198,13.945 -4.621,4.354 -7.509,0.022 -16.749,9.984 -9.239,9.962 -9.818,6.909 -13.86,16.521 -4.042,9.612 -8.084,5.665 -6.352,17.456 1.732,11.791 5.197,13.041 5.197,13.041 0,0 0.001,12.611 5.776,17.231 5.774,4.62 18.274,9.239 18.274,9.239 0,0 16.375,0 25.616,-5.197 9.241,-5.197 11.55,-8.151 24.256,-10.716 12.706,-2.566 26.567,6.673 32.341,15.914 5.774,9.242 13.283,12.707 0,16.749 -13.284,4.042 -19.637,8.663 -27.144,12.128 -7.507,3.465 -16.169,6.352 -15.015,9.24 1.155,2.887 1.733,7.508 5.775,9.817 4.042,2.309 5.774,5.198 5.774,5.198 0,0 -3.464,13.281 8.086,19.635 11.55,6.354 10.394,-0.869 14.437,2.742 4.043,3.611 11.551,9.965 11.551,9.965 0,0 -1.155,-2.311 10.396,-32.919 11.55,-30.608 8.661,-19.637 16.458,-27.144 7.797,-7.508 25.7,-4.621 25.7,-4.621"
       id="path39"
       inkscape:connector-curvature="0"
       style="fill:none;stroke:#2980b9;stroke-width:3;stroke-linejoin:bevel" /><path
       d="m 172.412,296.632 c 0,0 -11.663,5.061 -11.663,10.258 0,5.198 -7.912,3.032 7.042,4.708 12.056,1.351 21.293,3.408 21.293,3.408 -3.737,1.457 -32.844,5.505 -40.351,18.374"
       id="path41"
       inkscape:connector-curvature="0"
       style="fill:none;stroke:#2980b9;stroke-width:3;stroke-linejoin:bevel" /><path
       d="m 161.041,312.452 c -0.917,4.093 -0.167,7.774 0.934,11.634 2.354,-0.276 5.444,-2.046 7.458,-3.19 2.749,-1.562 7.892,-4.128 9.968,-6.143 -5.132,-0.324 -14.405,0.275 -18.268,-3.155 0.102,0.738 -0.49,1.471 -0.541,1.752"
       id="path43"
       inkscape:connector-curvature="0"
       style="fill:#2980b9;stroke:#2980b9" /><path
       d="m 110.923,364.945 c -0.419,9.938 8.047,6.832 14.353,8.615 -2.34,3.155 -7.511,3.354 -9.895,6.39 0.125,-3.23 -1.04,-6.958 -2.661,-9.614"
       id="path45"
       inkscape:connector-curvature="0"
       style="fill:#2980b9" /><path
       d="m 152.25,400.881 c -2.075,8.971 3.57,12.426 7.118,19.699 -3.813,-1.707 -8.834,-2.344 -11.972,-5.448 -2.995,-2.961 -7.65,-8.932 -9.263,-13.028"
       id="path47"
       inkscape:connector-curvature="0"
       style="fill:#2980b9;stroke:#2980b9" /><path
       d="m 193.384,429.246 c -2.525,0.861 -5.046,1.562 -7.328,0.931 0.493,0.136 -4.671,-3.474 -4.445,-3.289 -3.368,-2.735 -1.496,-4.795 -3.425,-8.448 0.009,5.219 -3.972,15.756 1.727,19.01 4.764,-6.111 9.839,-7.549 17.065,-10.45"
       id="path49"
       inkscape:connector-curvature="0"
       style="fill:#2980b9;stroke:#2980b9" /><path
       d="m 278.926,382.464 c 0,0 20.665,-13.012 42.676,-8.078 22.01,4.934 54.168,46.194 54.168,46.194 0,0 -34.405,-27.007 -55.518,-32.336 -21.111,-5.331 -41.326,-5.78 -41.326,-5.78 z"
       id="path51"
       inkscape:connector-curvature="0"
       style="fill:#2980b9" /><path
       d="M 263.66,352.546 234.904,333.38 c 0,0 2.246,3.773 2.246,9.583 0,5.81 -2.246,17.04 -2.246,17.04 l 28.756,-7.457 z"
       id="path53"
       inkscape:connector-curvature="0"
       style="fill:#2980b9" />
  </g>
</svg>