<?xml version="1.0" standalone="no"?>
<!DOCTYPE svg PUBLIC "-//W3C//DTD SVG 20010904//EN"
 "http://www.w3.org/TR/2001/REC-SVG-20010904/DTD/svg10.dtd">
<svg version="1.0" xmlns="http://www.w3.org/2000/svg"
 width="700.000000pt" height="700.000000pt" viewBox="0 0 700.000000 700.000000"
 preserveAspectRatio="xMidYMid meet">
<metadata>
Created by potrace 1.11, written by Peter Selinger 2001-2013
</metadata>
<g transform="translate(0.000000,700.000000) scale(0.100000,-0.100000)"
fill="#000000" stroke="none">
<path d="M3405 6860 c-22 -5 -56 -11 -75 -15 -19 -3 -42 -8 -50 -10 -8 -2 -31
-7 -50 -10 -121 -20 -354 -93 -455 -143 -169 -83 -320 -278 -507 -652 -37 -74
-87 -161 -111 -193 -48 -63 -194 -230 -278 -318 -109 -113 -108 -114 21 -34
250 155 331 216 455 340 147 146 214 227 336 410 51 77 123 169 159 205 123
124 296 247 515 369 110 61 114 66 40 51z"/>
<path d="M3995 6813 c-314 -22 -511 -92 -767 -273 -140 -99 -372 -336 -499
-510 -53 -73 -116 -166 -129 -190 -13 -24 -12 -24 6 -10 10 8 21 18 24 21 16
19 395 317 494 388 322 229 544 341 746 377 14 3 30 6 37 9 6 2 38 7 70 11 32
3 61 8 64 10 25 15 369 21 554 11 l110 -7 -59 35 c-160 91 -424 143 -651 128z"/>
<path d="M2620 6734 c-14 -8 -103 -52 -198 -99 -376 -185 -463 -242 -558 -368
-25 -34 -107 -183 -180 -330 -130 -261 -183 -350 -258 -431 -20 -21 -35 -40
-34 -42 5 -4 417 273 512 346 164 123 192 164 341 505 73 165 149 253 319 368
91 62 116 85 56 51z"/>
<path d="M4487 6474 c-1 -1 -81 -4 -177 -8 -96 -3 -184 -8 -195 -10 -11 -2
-63 -7 -115 -11 -52 -4 -98 -9 -101 -10 -3 -2 -28 -7 -55 -11 -27 -3 -60 -11
-74 -16 -14 -5 -25 -8 -25 -7 0 4 -109 -33 -167 -57 -114 -47 -281 -158 -407
-269 -19 -16 -93 -86 -164 -155 -156 -151 -142 -138 -196 -179 -144 -113 -344
-216 -626 -323 -125 -47 -126 -50 -10 -33 236 35 738 142 830 177 185 69 340
164 522 319 26 23 59 51 73 62 23 19 130 105 206 165 134 106 433 202 924 297
8 1 35 6 60 10 25 4 54 9 65 11 11 2 49 9 85 14 36 6 76 13 90 15 14 3 50 7
80 11 30 3 57 8 60 11 4 4 -677 2 -683 -3z"/>
<path d="M5117 6284 c-1 -1 -33 -5 -72 -8 -38 -4 -86 -9 -105 -11 -19 -2 -57
-7 -85 -11 -27 -3 -65 -8 -83 -10 -84 -10 -287 -58 -387 -90 -149 -48 -272
-112 -380 -197 -112 -89 -327 -234 -462 -312 -56 -33 -100 -61 -98 -64 11 -11
437 -17 495 -7 19 4 49 9 65 12 58 10 221 79 370 155 83 42 211 108 285 146
136 70 229 104 349 129 62 13 92 18 194 29 23 2 69 7 101 11 119 13 564 6 657
-11 23 -4 23 -4 -4 19 -35 29 -173 97 -264 131 -99 38 -209 65 -328 81 -42 6
-243 12 -248 8z"/>
<path d="M5460 5878 c-246 -22 -487 -98 -785 -249 -238 -120 -454 -200 -635
-236 -14 -3 -29 -6 -35 -7 -22 -6 -95 -20 -130 -26 -11 -2 164 -37 230 -46 22
-3 65 -9 95 -14 30 -5 87 -12 125 -15 39 -4 78 -9 87 -11 44 -13 357 -4 418
11 8 2 35 7 60 10 71 10 296 70 395 105 355 126 386 134 550 134 73 0 221 -11
265 -19 14 -2 47 -7 74 -10 27 -3 103 -17 170 -31 66 -14 130 -27 141 -29 11
-1 44 -10 74 -19 30 -9 57 -16 60 -16 19 1 -205 178 -319 253 -146 95 -309
170 -430 196 -102 22 -277 30 -410 19z"/>
<path d="M2810 5360 c-162 -20 -289 -58 -421 -126 -47 -24 -101 -56 -119 -72
-55 -43 -121 -105 -117 -108 1 -2 27 3 57 11 30 8 69 16 85 19 17 3 102 19
190 35 257 47 375 59 545 56 119 -3 159 -10 280 -48 65 -21 182 -69 280 -115
47 -22 121 -57 165 -77 44 -21 118 -55 165 -77 229 -107 408 -166 558 -184 51
-5 261 -5 292 1 14 3 46 7 71 9 54 6 73 10 187 38 86 22 100 33 55 44 -79 18
-468 139 -608 188 -88 31 -241 97 -340 146 -99 49 -218 100 -265 114 -87 26
-268 70 -330 81 -19 3 -42 8 -50 10 -8 2 -33 6 -55 10 -22 3 -47 8 -55 10 -97
30 -438 51 -570 35z"/>
<path d="M5937 5315 c-1 -2 -31 -5 -68 -8 -36 -3 -153 -28 -260 -56 -189 -49
-494 -114 -594 -126 -27 -3 -57 -8 -65 -10 -8 -2 -40 -7 -70 -10 -30 -3 -71
-8 -90 -10 -19 -2 -82 -5 -139 -5 -102 -1 -119 -4 -71 -14 14 -2 81 -17 150
-31 311 -66 656 -116 900 -131 106 -7 312 -6 373 1 165 18 299 42 449 80 147
38 378 126 378 144 0 4 -39 26 -87 48 -149 69 -176 77 -368 115 -48 9 -428 20
-438 13z"/>
<path d="M1013 5222 c-96 -103 -167 -192 -195 -245 -10 -21 -28 -79 -39 -129
-11 -50 -24 -99 -29 -108 -18 -34 -80 -79 -122 -90 -69 -16 -139 -56 -199
-113 -30 -28 -93 -87 -140 -129 -71 -64 -93 -92 -132 -167 -26 -49 -65 -111
-87 -138 -45 -54 -55 -89 -47 -171 11 -109 35 -191 72 -246 13 -19 26 -56 30
-83 13 -98 43 -178 85 -225 42 -49 168 -119 306 -173 65 -25 74 -32 112 -89
46 -69 114 -144 153 -168 33 -21 199 -80 199 -71 0 4 -25 46 -55 94 -67 105
-82 142 -81 193 l1 38 85 25 c51 14 131 49 200 88 143 79 190 99 293 126 202
53 387 0 551 -156 48 -45 206 -257 206 -276 0 -26 -18 -36 -161 -85 -74 -25
-185 -70 -248 -100 -62 -30 -117 -52 -121 -49 -4 3 -42 -9 -84 -26 -85 -34
-98 -33 -163 15 -43 31 -51 47 -73 125 -15 56 -28 43 -35 -34 -3 -33 -8 -67
-11 -76 -10 -36 -6 -117 9 -146 10 -18 12 -34 7 -39 -19 -19 -16 -59 6 -116
30 -77 40 -90 115 -146 l64 -47 1 -70 c2 -158 62 -252 202 -318 66 -31 141
-41 188 -24 16 6 43 -12 135 -87 104 -86 116 -94 134 -82 11 8 21 22 23 32 11
73 129 404 239 673 94 230 105 251 158 278 17 9 49 31 72 50 79 65 169 87 345
86 100 0 107 1 112 20 3 12 3 24 0 27 -3 3 -67 5 -142 5 -167 0 -248 -21 -338
-88 -33 -24 -74 -52 -92 -63 -33 -19 -66 -62 -94 -124 -77 -168 -293 -745
-302 -806 -4 -28 -16 -23 -92 42 -111 94 -118 98 -162 89 -62 -12 -100 -7
-160 20 -67 31 -115 74 -145 130 -20 38 -23 59 -27 218 0 12 -54 62 -104 96
-43 30 -77 83 -91 142 -8 31 6 41 115 89 41 17 158 72 260 120 102 49 245 109
318 134 73 24 146 54 162 66 28 20 33 29 33 65 0 8 -1 21 -2 29 -1 19 -151
218 -210 279 -143 149 -376 234 -541 196 -25 -6 -56 -13 -70 -15 -57 -10 -181
-61 -269 -112 -125 -72 -181 -96 -271 -115 -68 -15 -109 -20 -236 -31 -68 -6
-310 102 -375 167 -34 34 -64 102 -74 169 l-6 37 80 41 c75 37 99 59 69 61 -7
0 -20 2 -28 3 -8 2 -44 6 -80 10 -35 4 -71 12 -79 19 -12 10 -13 9 -2 -12 7
-13 9 -21 3 -17 -17 10 -64 179 -68 242 -3 63 7 87 57 137 9 9 37 56 63 106
27 53 63 105 87 128 23 21 80 74 126 118 98 93 170 141 222 150 54 9 111 45
147 92 30 39 41 72 60 179 14 78 79 174 218 320 78 82 83 90 68 107 -8 9 -18
17 -21 17 -3 -1 -43 -40 -88 -88z m492 -2522 c-3 -5 -12 -10 -18 -10 -7 0 -6
4 3 10 19 12 23 12 15 0z"/>
<path d="M1115 5034 c-97 -58 -156 -126 -146 -168 1 -5 -6 -17 -14 -27 -20
-22 -11 -59 14 -59 15 0 17 -9 16 -52 -1 -29 2 -67 6 -85 7 -32 6 -33 -65 -72
-61 -33 -116 -78 -162 -133 -8 -9 -5 -17 10 -29 20 -16 22 -16 53 21 44 51
114 94 228 141 90 37 235 83 294 94 91 17 165 41 167 56 4 30 -11 37 -101 53
-127 21 -149 24 -250 36 -124 15 -146 18 -150 22 -2 2 3 21 10 42 16 45 46 74
125 118 30 17 57 32 58 34 8 6 -10 44 -21 44 -7 0 -39 -16 -72 -36z m48 -281
c-7 -2 -19 -2 -25 0 -7 3 -2 5 12 5 14 0 19 -2 13 -5z m207 -27 c0 -2 -9 -6
-20 -9 -11 -3 -18 -1 -14 4 5 9 34 13 34 5z"/>
<path d="M6959 5042 c-2 -5 -39 -38 -83 -72 -192 -152 -339 -234 -476 -265
-76 -17 -144 -21 -435 -29 -88 -3 -169 -7 -180 -9 -11 -3 -47 -8 -80 -11 -33
-4 -96 -11 -140 -17 -44 -5 -96 -12 -115 -14 -19 -2 -60 -7 -90 -11 -30 -4
-66 -8 -80 -10 -14 -1 -45 -5 -70 -8 -25 -4 -63 -9 -85 -11 -22 -3 -62 -10
-90 -15 -27 -5 -75 -12 -105 -16 -30 -4 -57 -8 -60 -9 -3 -1 -32 -5 -65 -9
-33 -5 -64 -11 -69 -14 -8 -5 58 -25 117 -36 12 -2 81 -15 152 -29 72 -15 146
-29 165 -32 19 -3 46 -7 60 -10 14 -3 43 -7 65 -10 43 -5 95 -12 160 -22 22
-3 56 -7 75 -9 79 -7 157 -15 190 -20 56 -7 400 -7 460 0 308 39 543 212 718
528 36 64 75 158 68 165 -2 2 -6 0 -7 -5z"/>
<path d="M2625 4920 l-40 -5 30 -11 c91 -34 390 -139 520 -184 450 -155 425
-144 669 -292 384 -235 643 -348 831 -364 74 -6 211 -6 285 1 100 8 202 21
276 36 28 5 64 12 80 15 49 8 257 62 299 78 l40 15 -60 1 c-33 1 -67 3 -75 4
-8 2 -60 7 -115 10 -55 4 -111 9 -125 11 -14 2 -54 6 -90 10 -36 3 -87 10
-115 15 -27 5 -66 12 -85 14 -19 3 -46 8 -60 11 -14 3 -41 8 -60 11 -40 7
-171 51 -245 84 -60 26 -393 154 -670 256 -110 41 -209 79 -220 84 -38 17
-167 60 -243 81 -42 11 -108 29 -147 40 -38 10 -95 23 -125 29 -30 5 -66 12
-80 15 -146 29 -382 47 -475 35z"/>
<path d="M2510 4531 c149 -108 625 -373 795 -443 147 -61 300 -114 485 -166
104 -30 152 -42 325 -82 154 -35 145 -34 110 -10 -16 11 -67 44 -112 73 -45
29 -140 91 -210 139 -151 103 -383 223 -698 361 -236 103 -478 164 -665 167
l-85 1 55 -40z"/>
<path d="M2350 4393 c0 -4 7 -28 16 -52 22 -63 13 -214 -21 -370 l-6 -29 258
65 c142 35 259 65 260 67 2 2 -445 291 -493 319 -8 4 -14 4 -14 0z"/>
<path d="M5924 4096 c-88 -39 -360 -84 -604 -101 -168 -11 -493 -20 -774 -20
l-329 0 69 -32 c128 -60 385 -150 476 -167 13 -2 50 -11 83 -19 33 -9 96 -23
140 -31 44 -9 91 -19 105 -21 14 -3 43 -8 65 -11 22 -3 46 -7 53 -10 8 -2 49
-7 92 -10 l77 -6 284 212 c338 253 326 243 263 216z"/>
<path d="M2828 3855 c-2 -2 -37 -5 -78 -9 -144 -11 -280 -39 -280 -56 0 -5 11
-11 25 -14 79 -20 205 -96 236 -142 25 -38 24 -100 -1 -142 -11 -18 -20 -35
-20 -37 0 -8 173 101 320 201 168 114 248 150 332 149 45 0 37 12 -12 19 -19
2 -73 9 -120 16 -72 10 -394 22 -402 15z"/>
<path d="M3620 3707 c-3 -2 -25 -7 -50 -10 -107 -13 -269 -65 -375 -120 l-50
-26 40 -2 c22 -1 54 -3 70 -4 17 -2 57 -6 90 -10 279 -27 473 -62 628 -112 84
-27 375 -170 452 -222 25 -17 48 -31 51 -31 6 0 286 -186 355 -236 52 -38 68
-44 42 -16 -10 11 -49 55 -88 98 -114 129 -339 350 -430 423 -260 205 -382
260 -600 268 -71 3 -132 3 -135 0z"/>
<path d="M4555 3561 c61 -58 270 -219 279 -214 35 19 295 187 293 189 -1 1
-56 5 -122 8 -141 8 -257 14 -375 22 -55 3 -81 2 -75 -5z"/>
<path d="M3378 3355 c-2 -2 -26 -6 -55 -9 -63 -6 -282 -55 -305 -67 -9 -5 -34
-13 -55 -17 l-38 -9 55 -12 c30 -6 71 -14 90 -17 19 -3 38 -8 41 -10 4 -2 24
-6 45 -9 64 -10 252 -61 362 -100 239 -83 434 -205 735 -457 64 -55 117 -96
117 -92 0 17 -53 182 -77 239 -82 200 -179 342 -293 430 -128 98 -253 134
-472 133 -81 -1 -149 -2 -150 -3z"/>
<path d="M3025 3075 c-5 -2 -30 -9 -55 -15 l-44 -12 141 -69 c250 -121 405
-221 447 -287 38 -62 64 -140 90 -278 2 -12 7 -43 10 -70 17 -145 23 -224 31
-434 3 -74 8 -191 10 -260 5 -132 12 -226 21 -300 21 -174 110 -386 228 -544
34 -44 64 -85 68 -91 19 -27 13 10 -18 100 -38 111 -71 237 -82 305 -9 59 -8
232 3 395 11 163 12 552 2 710 -20 317 -95 523 -242 658 -59 54 -187 126 -283
158 -81 27 -115 32 -207 35 -60 1 -114 1 -120 -1z"/>
<path d="M2870 2642 c0 -4 25 -71 56 -147 81 -203 98 -279 129 -575 4 -36 9
-78 11 -95 2 -16 6 -55 9 -85 9 -97 15 -153 25 -220 5 -36 12 -83 15 -105 6
-41 31 -189 40 -235 4 -23 13 -67 21 -113 2 -10 12 -52 24 -95 83 -307 245
-540 430 -616 l36 -15 -67 134 c-71 142 -127 298 -156 435 -16 77 -18 148 -18
730 l0 645 -28 57 c-56 115 -220 224 -422 282 -98 28 -105 30 -105 18z"/>
</g>
</svg>
